g P0G01#LOD
v 0.12424 0.06004357 0.8765203
v 0.1392892 0.03747228 0.8771848
v 0.1386641 0.03600134 0.9089045
v 0.1369257 0.04153949 0.934783
v 0.1157235 0.06942213 0.9083642
v 0.1154224 0.07600606 0.9588916
v 0.08686252 0.09564126 0.9211313
v 0.1015583 0.07517608 0.8741281
v 0.09017573 0.0781062 0.897072
v 0.05869142 0.07423776 0.8895855
v 0.07642245 0.07700036 0.8708931
v 0.05440914 0.06909589 0.8683178
v 0.03362938 0.05482512 0.86606
v 0.1189348 0.03028138 1.010108
v 0.1304294 0.02289262 0.9827186
v 0.1350904 0.03214623 0.9589024
v 0.1001556 0.03784052 1.039504
v 0.1083419 0.02015111 1.037626
v 0.1007752 0.05335887 1.02329
v 0.08928555 0.05072655 1.040703
v 0.09544196 0.07171525 1.007833
v 0.07640529 0.05938478 1.040902
v 0.08906522 0.0952967 0.9650485
v 0.0796884 0.08139674 1.006905
v 0.06190746 0.06473869 1.040359
v 0.06222918 0.1010922 0.9777523
v 0.05570315 0.08955697 1.00435
v 0.04686659 0.06758275 1.039666
v 0.04763972 0.07920857 1.022003
v 0.03178484 0.06750505 1.038842
v 0.03298938 0.07946221 1.021035
v 0.01635849 0.06753027 1.037801
v 0.02558795 0.08995076 1.001348
v 0.009707937 0.07487868 1.017456
v 2.58546E-05 0.0726579 0.9942592
v 2.58546E-05 0.06774437 1.036524
v 0.0212712 0.09885629 0.9687392
v 0.04974484 0.1048669 0.9366138
v 0.03779116 0.08689211 0.9058806
v 0.01747502 0.07633535 0.9104431
v 0.02068694 0.09618116 0.9358346
v -0.009656323 0.07487868 1.017456
v -0.01671207 0.09132398 0.9878322
v -0.01630678 0.06753027 1.037801
v -0.0004050038 0.07057871 0.9331284
v 0.03122126 0.05602726 0.8928795
v 0.01882082 0.03245139 0.8800447
v 0.01974939 0.03376771 0.8647129
v 0.01704387 0.008280119 0.864741
v 0.01601435 0.007594847 0.8806309
v 0.01550303 0.03041243 0.9011282
v 0.01451976 0.007818836 0.8940861
v 0.01103763 0.008483358 0.9029128
v 2.584697E-05 0.02987408 0.9075477
v -0.01742302 0.07633536 0.9104433
v 2.58546E-05 -0.01152612 0.9044604
v -0.01098589 0.008483358 0.9029128
v -0.02063524 0.09618112 0.9358345
v -0.0154513 0.03041242 0.9011283
v -0.01446796 0.007818836 0.8940861
v -0.01596264 0.007594847 0.8806309
v -0.01876911 0.03245139 0.8800447
v -0.01699207 0.008280119 0.864741
v -0.01969768 0.03376771 0.8647129
v -0.0335777 0.05482512 0.86606
v -0.03116963 0.05602727 0.8928795
v -0.05863964 0.07423775 0.8895855
v -0.05435734 0.06909589 0.8683178
v -0.07637061 0.07700036 0.8708931
v -0.04957169 0.09132309 0.905387
v -0.09012407 0.07810621 0.897072
v -0.1015066 0.07517608 0.8741281
v -0.1156724 0.06942184 0.9083641
v -0.1241884 0.06004357 0.8765203
v -0.049693 0.1048669 0.9366138
v -0.08562896 0.09913147 0.9387784
v -0.1152936 0.07650241 0.9544837
v -0.1328472 0.04529131 0.9443286
v -0.05321037 0.1038225 0.9749658
v -0.1386125 0.03600134 0.9089045
v -0.1392376 0.03747228 0.8771848
v -0.1428558 0.01282687 0.9287223
v -0.1466754 0.01076444 0.8775055
v -0.1432167 -0.01659413 0.8772975
v -0.08588216 0.08642792 0.9939838
v -0.03293765 0.07946222 1.021035
v -0.03173307 0.06750505 1.038842
v -0.04758788 0.07920857 1.022003
v -0.04681479 0.06758275 1.039666
v -0.06250734 0.07641713 1.022598
v -0.06185567 0.06473869 1.040359
v -0.0775129 0.07139416 1.022852
v -0.07635336 0.05938478 1.040902
v -0.09539049 0.07171529 1.007833
v -0.08923386 0.05072655 1.040703
v -0.1007236 0.05335887 1.02329
v -0.1001042 0.03784053 1.039504
v -0.1197953 0.03691629 1.002612
v -0.1082904 0.02015111 1.037626
v -0.1136333 -0.0001209684 1.033499
v -0.1226189 0.003112156 1.006217
v -0.1131103 -0.0217725 1.028141
v -0.1214674 -0.04038816 0.9584484
v -0.1029516 -0.04153123 1.021533
v -0.08564775 -0.05510414 1.013397
v -0.1418725 -0.01696369 0.9025286
v -0.1273713 -0.04221023 0.875842
v -0.09109052 -0.05497201 0.983062
v -0.06506597 -0.06217635 1.006014
v -0.09911077 -0.05714423 0.895739
v -0.1002344 -0.05721148 0.8731121
v -0.05322256 -0.0499737 0.9519751
v -0.07027971 -0.05313314 0.870909
v -0.04544755 -0.03839701 0.8683465
v -0.09504376 -0.05698955 0.9513395
v -0.06845796 -0.05810232 0.9767931
v -0.04418188 -0.06818084 1.000886
v -0.04583799 -0.06017849 0.9708863
v -0.02200815 -0.07190867 0.9972011
v -0.002624237 -0.06487823 0.9600937
v 2.58546E-05 -0.07264753 0.9968521
v -0.001248735 -0.05526207 0.9379563
v 0.02222078 -0.06364613 0.9663228
v 0.02205982 -0.07190867 0.9972011
v 0.04588975 -0.06017849 0.9708863
v 0.04423351 -0.06818084 1.000886
v 0.06221485 -0.05430796 0.9573326
v 0.06850979 -0.05810232 0.9767931
v 0.06511775 -0.06217635 1.006014
v 0.09114212 -0.05497201 0.983062
v 0.006051569 -0.0334283 0.9145541
v 0.08569949 -0.05510414 1.013397
v 0.1217025 -0.03977426 0.9596936
v 0.1030032 -0.04153123 1.021533
v 0.1131619 -0.0217725 1.028141
v -0.03643722 -0.0332975 0.9212006
v 0.09661244 -0.05715196 0.9405671
v 0.1226706 0.003112156 1.006217
v 0.1136848 -0.0001209684 1.033499
v 0.1189348 0.03028138 1.010108
v 0.1083419 0.02015111 1.037626
v 0.1304294 0.02289262 0.9827186
v 0.1439284 0.01053015 0.9187937
v 0.1369257 0.04153949 0.934783
v 0.1350904 0.03214623 0.9589024
v 0.1386641 0.03600134 0.9089045
v 0.1392892 0.03747228 0.8771848
v 0.146727 0.01076444 0.8775055
v 0.1432684 -0.01659413 0.8772975
v 0.1419242 -0.01696369 0.9025286
v 0.127423 -0.04221023 0.875842
v 0.1002859 -0.05721148 0.8731121
v 0.07033159 -0.05313314 0.870909
v 0.04549935 -0.03839701 0.8683465
v 0.02452789 -0.01735795 0.8836982
v 0.02605805 -0.01689066 0.8659107
v 0.01601435 0.007594847 0.8806309
v 0.01704387 0.008280119 0.864741
v 0.01451976 0.007818836 0.8940861
v 2.58546E-05 -0.01152612 0.9044604
v 0.01103763 0.008483358 0.9029128
v -0.01446796 0.007818836 0.8940861
v -0.01098589 0.008483358 0.9029128
v -0.02447633 -0.01735795 0.8836982
v -0.01596264 0.007594847 0.8806309
v -0.02600641 -0.01689066 0.8659107
v -0.01699207 0.008280119 0.864741
vt 0.5633964 0.02467643
vt 0.5633964 0.002392903
vt 0.5416153 0.002392903
vt 0.5244048 0.006777741
vt 0.5408816 0.03099879
vt 0.507001 0.03044846
vt 0.5273246 0.0518666
vt 0.5633964 0.05000325
vt 0.546367 0.05083614
vt 0.5497009 0.07071644
vt 0.563402 0.06374997
vt 0.563402 0.07601729
vt 0.5633964 0.08752736
vt 0.4686906 0.004904401
vt 0.4888635 0.002392903
vt 0.5076468 0.002392903
vt 0.4453585 0.01670691
vt 0.4453585 0.002392903
vt 0.4600629 0.0250701
vt 0.4453585 0.02933905
vt 0.4729522 0.03576289
vt 0.4453585 0.04120252
vt 0.5015488 0.04737114
vt 0.4730946 0.04701753
vt 0.4453338 0.05204913
vt 0.4925877 0.06156443
vt 0.4745558 0.06306475
vt 0.4452178 0.063649
vt 0.4603596 0.06648874
vt 0.4452207 0.07594612
vt 0.4606875 0.07745518
vt 0.4453233 0.08793129
vt 0.4762245 0.08340565
vt 0.4623682 0.096774
vt 0.4814939 0.1055324
vt 0.4453585 0.105605
vt 0.496657 0.0844938
vt 0.5153856 0.06984449
vt 0.5337237 0.07827853
vt 0.5315934 0.08973906
vt 0.5152265 0.08503309
vt 0.4623425 0.1152754
vt 0.4838409 0.1247714
vt 0.4453148 0.1256023
vt 0.5203278 0.1072055
vt 0.5483369 0.08770163
vt 0.5573698 0.09469979
vt 0.5633964 0.09306782
vt 0.5633964 0.0982896
vt 0.5604789 0.1008521
vt 0.5513339 0.09943436
vt 0.5579092 0.102566
vt 0.5567071 0.1037225
vt 0.5500866 0.1058005
vt 0.531655 0.1226058
vt 0.5571457 0.105605
vt 0.5569788 0.1079103
vt 0.515264 0.127453
vt 0.5513071 0.112202
vt 0.5581356 0.1095696
vt 0.5605202 0.1116916
vt 0.557411 0.1181879
vt 0.5633964 0.1141225
vt 0.5633964 0.1204828
vt 0.5633964 0.1263507
vt 0.5482135 0.1249279
vt 0.549794 0.1432128
vt 0.563404 0.138822
vt 0.5634002 0.1515827
vt 0.5338075 0.1414585
vt 0.5468861 0.1633431
vt 0.5633964 0.1654274
vt 0.540987 0.1837587
vt 0.5633964 0.1920851
vt 0.515446 0.1432865
vt 0.5169199 0.1624125
vt 0.5098451 0.1830163
vt 0.5178782 0.2036553
vt 0.4939665 0.1464283
vt 0.544196 0.2110156
vt 0.5634022 0.2110156
vt 0.5275468 0.2222084
vt 0.5634078 0.2228359
vt 0.5634078 0.2367774
vt 0.482818 0.1683277
vt 0.4606759 0.1361233
vt 0.4452131 0.1381353
vt 0.4603672 0.1475934
vt 0.4452302 0.1501528
vt 0.4603267 0.1589068
vt 0.4453471 0.1619732
vt 0.4607586 0.169651
vt 0.4453585 0.1729074
vt 0.4730005 0.1783151
vt 0.4453584 0.1854468
vt 0.460165 0.1891051
vt 0.4453585 0.1961523
vt 0.4748656 0.2046808
vt 0.445295 0.2110156
vt 0.4452322 0.2228359
vt 0.4674712 0.2241889
vt 0.4452322 0.2367762
vt 0.4982116 0.2511548
vt 0.4452322 0.2516396
vt 0.445232 0.2667781
vt 0.5444837 0.2376492
vt 0.5634078 0.2516397
vt 0.4717082 0.2685296
vt 0.445232 0.2818518
vt 0.5446861 0.2680158
vt 0.5634077 0.2667781
vt 0.4927879 0.2935726
vt 0.5634077 0.2818517
vt 0.563408 0.299104
vt 0.4985587 0.2692639
vt 0.4722213 0.2829032
vt 0.4452322 0.2967593
vt 0.4727796 0.2970642
vt 0.445232 0.3118628
vt 0.4758443 0.3242217
vt 0.4452322 0.3262213
vt 0.4955498 0.3249697
vt 0.4728563 0.339749
vt 0.445232 0.3403222
vt 0.4728552 0.3539817
vt 0.4452322 0.3547078
vt 0.4896125 0.3637748
vt 0.4723498 0.3675914
vt 0.445232 0.3685669
vt 0.471859 0.3814145
vt 0.5153496 0.3291917
vt 0.4452323 0.3824237
vt 0.497346 0.3989232
vt 0.4452323 0.396399
vt 0.4452323 0.4111037
vt 0.5194312 0.3045389
vt 0.5076684 0.3813244
vt 0.467519 0.4256389
vt 0.4452322 0.425248
vt 0.468431 0.4398496
vt 0.4452322 0.4398496
vt 0.4886174 0.4361317
vt 0.5344418 0.4263157
vt 0.525261 0.4398496
vt 0.5076466 0.4398496
vt 0.5416151 0.4398496
vt 0.5634077 0.4398496
vt 0.5634077 0.4252481
vt 0.563408 0.4111037
vt 0.5444664 0.4114859
vt 0.5634078 0.396399
vt 0.5634077 0.3824247
vt 0.5634077 0.3685668
vt 0.563408 0.3489604
vt 0.5487548 0.3373275
vt 0.5634077 0.3352837
vt 0.5452415 0.3269775
vt 0.5634078 0.3269775
vt 0.5335892 0.3269775
vt 0.5215805 0.3258885
vt 0.5257071 0.3267096
vt 0.5335891 0.3248439
vt 0.5257736 0.3250552
vt 0.5487464 0.3130354
vt 0.5452414 0.3248439
vt 0.5634078 0.3142075
vt 0.5634077 0.3248439
vn 0.711319 0.702863 -0.002980233
vn 0.9139317 0.4047723 0.02980233
vn 0.9377335 0.3456907 0.0339687
vn 0.9372929 0.3354928 0.09448107
vn 0.658901 0.7437479 -0.1126431
vn 0.7418934 0.6591056 0.1231824
vn 0.380793 0.8626841 -0.3328254
vn 0.3286577 0.944322 -0.0154972
vn 0.251392 0.9108297 -0.3274009
vn -0.2600623 0.8350888 -0.4847621
vn -0.121738 0.992379 -0.01907348
vn -0.452007 0.8914962 -0.03039837
vn -0.7177218 0.6951838 -0.03993511
vn 0.9000878 0.2183188 0.3770662
vn 0.9416568 0.1587185 0.2968014
vn 0.9614444 0.1927884 0.1961054
vn 0.7636935 0.4529424 0.4600168
vn 0.8887033 0.2487975 0.3851057
vn 0.6903912 0.5290421 0.4934312
vn 0.5734772 0.6389772 0.5126715
vn 0.557033 0.6910678 0.4605861
vn 0.381534 0.7594172 0.5269887
vn 0.4630275 0.8706241 0.1661904
vn 0.3488615 0.8072854 0.4760104
vn 0.2147386 0.8244402 0.5236273
vn 0.149573 0.948662 0.2786903
vn 0.1102096 0.8758098 0.4699053
vn 0.07218981 0.8534635 0.5161287
vn 0.05503374 0.8428309 0.5353572
vn -0.01650378 0.8755633 0.4828215
vn -0.0921316 0.8564945 0.5078671
vn -0.03953277 0.9112461 0.4099607
vn -0.2572855 0.8922993 0.370953
vn -0.2993635 0.9139032 0.2741576
vn 0 0.9978265 0.06589554
vn 0 0.94178 0.3362297
vn -0.4508149 0.8849751 0.1165548
vn -0.06607675 0.9793293 -0.1911751
vn -0.3165145 0.6799064 -0.6614726
vn -0.6221198 0.5001894 -0.6023101
vn -0.5238414 0.8098959 -0.2639295
vn 0.2993539 0.9139028 0.2741694
vn 0.649192 0.72233 0.2383046
vn 0.03953277 0.9112461 0.4099607
vn 0.3000613 0.7788886 -0.550723
vn -0.6830239 0.4952441 -0.5368536
vn -0.943333 0.3185544 -0.09298325
vn -0.939603 0.3364958 -0.06258488
vn -0.9886751 -0.11873 -0.09178518
vn -0.9883532 -0.1227083 -0.09000301
vn -0.7477619 0.1632897 -0.6435748
vn -0.9828581 -0.1353605 -0.1251698
vn -0.3685113 -0.0930212 -0.9249575
vn 0.01407019 0.200892 -0.9795123
vn 0.6091143 0.4858445 -0.6268452
vn 0 0.01811753 -0.9998358
vn 0.3685113 -0.0930212 -0.9249575
vn 0.5195926 0.8120782 -0.2656173
vn 0.7713671 0.1767627 -0.6113491
vn 0.9828583 -0.1353592 -0.1251697
vn 0.9883535 -0.122706 -0.09000301
vn 0.943333 0.3185544 -0.09298325
vn 0.9886751 -0.11873 -0.09178518
vn 0.939603 0.3364958 -0.06258488
vn 0.7177218 0.6951838 -0.03993511
vn 0.6943882 0.4863853 -0.5303344
vn 0.2654012 0.8343041 -0.4832172
vn 0.452007 0.8914962 -0.03039837
vn 0.121738 0.992379 -0.01907348
vn 0.1590697 0.768657 -0.619567
vn -0.2399252 0.9166374 -0.3197057
vn -0.3286577 0.944322 -0.0154972
vn -0.658484 0.74404 -0.1131525
vn -0.7113564 0.7028252 -0.00298023
vn 0.06364204 0.9795637 -0.1908001
vn -0.4000943 0.9125196 -0.08504382
vn -0.7386376 0.6673667 0.09505838
vn -0.9256598 0.3601035 0.1161009
vn -0.01979541 0.970738 0.2393239
vn -0.9377154 0.3457391 0.03397466
vn -0.9139317 0.4047723 0.02980233
vn -0.9896759 0.04047779 0.1374886
vn -0.9966406 0.06783169 0.04589559
vn -0.9422586 -0.3328413 0.03694892
vn -0.42233 0.8185318 0.3894137
vn 0.0921316 0.8564945 0.5078671
vn 0.01650378 0.8755633 0.4828215
vn -0.05503374 0.8428309 0.5353572
vn -0.07218981 0.8534635 0.5161287
vn -0.192797 0.8193135 0.539958
vn -0.2147742 0.8244314 0.5236268
vn -0.3432959 0.7699952 0.5378246
vn -0.3814687 0.759434 0.5270119
vn -0.5569362 0.6911498 0.46058
vn -0.5735281 0.6389505 0.5126479
vn -0.6904299 0.5290141 0.4934074
vn -0.7636935 0.4529424 0.4600168
vn -0.8903952 0.2741187 0.3633941
vn -0.8887033 0.2487975 0.3851057
vn -0.9476594 0.0244117 0.3183483
vn -0.9500779 -0.02337107 0.3111362
vn -0.9207271 -0.2993088 0.2503514
vn -0.7411233 -0.6550434 0.1471543
vn -0.7372417 -0.6573336 0.1561642
vn -0.4496625 -0.8924337 0.03695487
vn -0.9418058 -0.3276619 0.07509591
vn -0.6883607 -0.725051 0.02145767
vn -0.343544 -0.9374637 0.05602837
vn -0.2915456 -0.9533157 -0.07867811
vn -0.1918487 -0.9814098 0.005364418
vn -0.1838818 -0.9829265 -0.006556509
vn 0.05095201 -0.9386918 -0.3409718
vn 0.3292433 -0.9430999 -0.04649161
vn 0.6273066 -0.7747265 -0.07928015
vn -0.2357844 -0.9709762 0.04013758
vn -0.121966 -0.9835132 -0.1335144
vn -0.2328702 -0.9588988 -0.1621246
vn -0.2114054 -0.9188343 -0.3332436
vn -0.1122643 -0.9763467 -0.1847804
vn -0.02026498 -0.9410208 -0.3377413
vn 0 -0.9848396 -0.1734674
vn -0.0117906 -0.8380225 -0.5455082
vn 0.1687601 -0.9297363 -0.3272772
vn 0.1122643 -0.9763467 -0.1847804
vn 0.2114054 -0.9188343 -0.3332436
vn 0.2329051 -0.9588904 -0.1621246
vn -0.03380837 -0.9668416 -0.2531292
vn 0.121966 -0.9835132 -0.1335144
vn 0.2916135 -0.953295 -0.07867812
vn 0.3434786 -0.9374878 0.05602838
vn 0.08124181 -0.57768 -0.8122103
vn 0.4496625 -0.8924337 0.03695487
vn 0.7525914 -0.640916 0.1511053
vn 0.7372072 -0.6573694 0.1561761
vn 0.9207271 -0.2993088 0.2503514
vn 0.2392122 -0.8700626 -0.4310088
vn 0.2400474 -0.9701524 0.03437246
vn 0.950074 -0.02337277 0.3111481
vn 0.9476594 0.0244117 0.3183483
vn 0.9107012 0.1796925 0.3719328
vn 0.8887033 0.2487975 0.3851057
vn 0.9498053 0.09919282 0.2966998
vn 0.9938825 0.0325477 0.1055378
vn 0.9618548 0.2574879 0.09238717
vn 0.9614444 0.1927884 0.1961054
vn 0.9377335 0.3456907 0.0339687
vn 0.9139317 0.4047723 0.02980233
vn 0.9966406 0.06783169 0.04589559
vn 0.942242 -0.332888 0.03695487
vn 0.9418058 -0.3276619 0.07509591
vn 0.6882818 -0.725126 0.02145768
vn 0.1838102 -0.9829398 -0.006556509
vn -0.3293096 -0.9430767 -0.04649161
vn -0.6273066 -0.7747265 -0.07928015
vn -0.8525349 -0.5165316 -0.07987022
vn -0.8522047 -0.5138822 -0.09834766
vn -0.9883532 -0.1227083 -0.09000301
vn -0.9886751 -0.11873 -0.09178518
vn -0.9828581 -0.1353605 -0.1251698
vn 0 -0.2653306 -0.9641575
vn -0.3685113 -0.0930212 -0.9249575
vn 0.9828583 -0.1353592 -0.1251697
vn 0.3685113 -0.0930212 -0.9249575
vn 0.8525349 -0.5165316 -0.07987022
vn 0.9883535 -0.122706 -0.09000301
vn 0.8522048 -0.5138821 -0.09834766
vn 0.9886751 -0.11873 -0.09178518
g P0G01#LOD_0
f 3/3/3 2/2/2 1/1/1
f 4/4/4 3/3/3 1/1/1
f 4/4/4 1/1/1 5/5/5
f 4/4/4 5/5/5 6/6/6
f 6/6/6 5/5/5 7/7/7
f 1/1/1 8/8/8 5/5/5
f 8/8/8 9/9/9 5/5/5
f 9/9/9 7/7/7 5/5/5
f 9/9/9 10/10/10 7/7/7
f 8/8/8 11/11/11 9/9/9
f 11/11/11 10/10/10 9/9/9
f 11/11/11 12/12/12 10/10/10
f 12/12/12 13/13/13 10/10/10
f 14/14/14 4/4/4 6/6/6
f 14/14/14 15/15/15 4/4/4
f 15/15/15 16/16/16 4/4/4
f 14/14/14 6/6/6 17/17/17
f 18/18/18 14/14/14 17/17/17
f 6/6/6 19/19/19 17/17/17
f 20/20/20 17/17/17 19/19/19
f 21/21/21 20/20/20 19/19/19
f 19/19/19 6/6/6 21/21/21
f 20/20/20 21/21/21 22/22/22
f 21/21/21 6/6/6 23/23/23
f 6/6/6 7/7/7 23/23/23
f 21/21/21 24/24/24 22/22/22
f 24/24/24 21/21/21 23/23/23
f 25/25/25 22/22/22 24/24/24
f 26/26/26 24/24/24 23/23/23
f 7/7/7 26/26/26 23/23/23
f 27/27/27 25/25/25 24/24/24
f 26/26/26 27/27/27 24/24/24
f 28/28/28 25/25/25 27/27/27
f 29/29/29 28/28/28 27/27/27
f 30/30/30 28/28/28 29/29/29
f 31/31/31 30/30/30 29/29/29
f 29/29/29 27/27/27 31/31/31
f 32/32/32 30/30/30 31/31/31
f 27/27/27 33/33/33 31/31/31
f 33/33/33 32/32/32 31/31/31
f 33/33/33 27/27/27 26/26/26
f 32/32/32 33/33/33 34/34/34
f 33/33/33 35/35/35 34/34/34
f 36/36/36 32/32/32 34/34/34
f 36/36/36 34/34/34 35/35/35
f 37/37/37 33/33/33 26/26/26
f 33/33/33 37/37/37 35/35/35
f 7/7/7 38/38/38 26/26/26
f 26/26/26 38/38/38 37/37/37
f 38/38/38 7/7/7 39/39/39
f 7/7/7 10/10/10 39/39/39
f 40/40/40 39/39/39 10/10/10
f 38/38/38 41/41/41 37/37/37
f 41/41/41 38/38/38 39/39/39
f 37/37/37 41/41/41 35/35/35
f 41/41/41 39/39/39 40/40/40
f 42/42/42 36/36/36 35/35/35
f 35/35/35 43/43/43 42/42/42
f 44/44/44 36/36/36 42/42/42
f 43/43/43 44/44/44 42/42/42
f 41/41/41 45/45/45 35/35/35
f 41/41/41 40/40/40 45/45/45
f 45/45/45 43/43/43 35/35/35
f 46/46/46 40/40/40 10/10/10
f 13/13/13 46/46/46 10/10/10
f 47/47/47 46/46/46 13/13/13
f 48/48/48 47/47/47 13/13/13
f 48/48/48 49/49/49 47/47/47
f 49/49/49 50/50/50 47/47/47
f 47/47/47 51/51/51 46/46/46
f 51/51/51 47/47/47 50/50/50
f 46/46/46 51/51/51 40/40/40
f 52/52/52 51/51/51 50/50/50
f 52/52/52 53/53/53 51/51/51
f 51/51/51 53/53/53 40/40/40
f 53/53/53 54/54/54 40/40/40
f 45/45/45 40/40/40 54/54/54
f 55/55/55 45/45/45 54/54/54
f 56/56/56 54/54/54 53/53/53
f 54/54/54 56/56/56 57/57/57
f 54/54/54 57/57/57 55/55/55
f 55/55/55 58/58/58 45/45/45
f 45/45/45 58/58/58 43/43/43
f 57/57/57 59/59/59 55/55/55
f 57/57/57 60/60/60 59/59/59
f 59/59/59 60/60/60 61/61/61
f 62/62/62 59/59/59 61/61/61
f 61/61/61 63/63/63 62/62/62
f 63/63/63 64/64/64 62/62/62
f 62/62/62 64/64/64 65/65/65
f 59/59/59 62/62/62 66/66/66
f 66/66/66 62/62/62 65/65/65
f 59/59/59 66/66/66 55/55/55
f 66/66/66 65/65/65 67/67/67
f 55/55/55 66/66/66 67/67/67
f 65/65/65 68/68/68 67/67/67
f 68/68/68 69/69/69 67/67/67
f 70/70/70 58/58/58 55/55/55
f 70/70/70 55/55/55 67/67/67
f 67/67/67 69/69/69 71/71/71
f 67/67/67 71/71/71 70/70/70
f 69/69/69 72/72/72 71/71/71
f 71/71/71 72/72/72 73/73/73
f 70/70/70 71/71/71 73/73/73
f 72/72/72 74/74/74 73/73/73
f 75/75/75 58/58/58 70/70/70
f 58/58/58 75/75/75 43/43/43
f 76/76/76 75/75/75 70/70/70
f 76/76/76 70/70/70 73/73/73
f 73/73/73 77/77/77 76/76/76
f 74/74/74 78/78/78 73/73/73
f 73/73/73 78/78/78 77/77/77
f 75/75/75 79/79/79 43/43/43
f 75/75/75 76/76/76 79/79/79
f 80/80/80 78/78/78 74/74/74
f 81/81/81 80/80/80 74/74/74
f 80/80/80 81/81/81 82/82/82
f 80/80/80 82/82/82 78/78/78
f 81/81/81 83/83/83 82/82/82
f 83/83/83 84/84/84 82/82/82
f 76/76/76 77/77/77 85/85/85
f 85/85/85 79/79/79 76/76/76
f 79/79/79 86/86/86 43/43/43
f 44/44/44 43/43/43 86/86/86
f 87/87/87 44/44/44 86/86/86
f 87/87/87 86/86/86 88/88/88
f 79/79/79 88/88/88 86/86/86
f 89/89/89 87/87/87 88/88/88
f 79/79/79 90/90/90 88/88/88
f 89/89/89 88/88/88 90/90/90
f 90/90/90 79/79/79 85/85/85
f 91/91/91 89/89/89 90/90/90
f 91/91/91 90/90/90 92/92/92
f 92/92/92 90/90/90 85/85/85
f 93/93/93 91/91/91 92/92/92
f 94/94/94 92/92/92 85/85/85
f 92/92/92 94/94/94 93/93/93
f 77/77/77 94/94/94 85/85/85
f 94/94/94 95/95/95 93/93/93
f 95/95/95 94/94/94 96/96/96
f 77/77/77 96/96/96 94/94/94
f 97/97/97 95/95/95 96/96/96
f 96/96/96 77/77/77 97/97/97
f 77/77/77 98/98/98 97/97/97
f 98/98/98 99/99/99 97/97/97
f 78/78/78 98/98/98 77/77/77
f 99/99/99 98/98/98 100/100/100
f 82/82/82 98/98/98 78/78/78
f 98/98/98 101/101/101 100/100/100
f 101/101/101 98/98/98 82/82/82
f 100/100/100 101/101/101 102/102/102
f 101/101/101 103/103/103 102/102/102
f 82/82/82 103/103/103 101/101/101
f 103/103/103 104/104/104 102/102/102
f 105/105/105 104/104/104 103/103/103
f 106/106/106 103/103/103 82/82/82
f 84/84/84 106/106/106 82/82/82
f 84/84/84 107/107/107 106/106/106
f 107/107/107 103/103/103 106/106/106
f 108/108/108 105/105/105 103/103/103
f 109/109/109 105/105/105 108/108/108
f 110/110/110 103/103/103 107/107/107
f 111/111/111 110/110/110 107/107/107
f 112/112/112 110/110/110 111/111/111
f 113/113/113 112/112/112 111/111/111
f 113/113/113 114/114/114 112/112/112
f 115/115/115 103/103/103 110/110/110
f 108/108/108 103/103/103 115/115/115
f 115/115/115 110/110/110 112/112/112
f 108/108/108 115/115/115 112/112/112
f 116/116/116 109/109/109 108/108/108
f 116/116/116 108/108/108 112/112/112
f 117/117/117 109/109/109 116/116/116
f 118/118/118 117/117/117 116/116/116
f 112/112/112 118/118/118 116/116/116
f 117/117/117 118/118/118 119/119/119
f 118/118/118 120/120/120 119/119/119
f 119/119/119 120/120/120 121/121/121
f 112/112/112 122/122/122 118/118/118
f 122/122/122 120/120/120 118/118/118
f 120/120/120 123/123/123 121/121/121
f 123/123/123 120/120/120 122/122/122
f 123/123/123 124/124/124 121/121/121
f 123/123/123 125/125/125 124/124/124
f 125/125/125 126/126/126 124/124/124
f 123/123/123 127/127/127 125/125/125
f 127/127/127 123/123/123 122/122/122
f 126/126/126 125/125/125 128/128/128
f 125/125/125 127/127/127 128/128/128
f 129/129/129 126/126/126 128/128/128
f 130/130/130 128/128/128 127/127/127
f 129/129/129 128/128/128 130/130/130
f 127/127/127 122/122/122 131/131/131
f 132/132/132 129/129/129 130/130/130
f 132/132/132 130/130/130 133/133/133
f 134/134/134 132/132/132 133/133/133
f 134/134/134 133/133/133 135/135/135
f 122/122/122 136/136/136 131/131/131
f 136/136/136 122/122/122 112/112/112
f 114/114/114 136/136/136 112/112/112
f 137/137/137 130/130/130 127/127/127
f 133/133/133 130/130/130 137/137/137
f 133/133/133 138/138/138 135/135/135
f 138/138/138 139/139/139 135/135/135
f 138/138/138 140/140/140 139/139/139
f 140/140/140 141/141/141 139/139/139
f 140/140/140 138/138/138 142/142/142
f 133/133/133 142/142/142 138/138/138
f 143/143/143 142/142/142 133/133/133
f 143/143/143 144/144/144 142/142/142
f 144/144/144 145/145/145 142/142/142
f 143/143/143 146/146/146 144/144/144
f 147/147/147 146/146/146 143/143/143
f 148/148/148 147/147/147 143/143/143
f 149/149/149 148/148/148 143/143/143
f 150/150/150 149/149/149 143/143/143
f 133/133/133 150/150/150 143/143/143
f 151/151/151 149/149/149 150/150/150
f 133/133/133 151/151/151 150/150/150
f 133/133/133 137/137/137 151/151/151
f 137/137/137 152/152/152 151/151/151
f 137/137/137 127/127/127 152/152/152
f 127/127/127 153/153/153 152/152/152
f 154/154/154 153/153/153 127/127/127
f 127/127/127 155/155/155 154/154/154
f 155/155/155 156/156/156 154/154/154
f 155/155/155 157/157/157 156/156/156
f 157/157/157 158/158/158 156/156/156
f 155/155/155 159/159/159 157/157/157
f 159/159/159 155/155/155 127/127/127
f 159/159/159 127/127/127 131/131/131
f 159/159/159 131/131/131 160/160/160
f 159/159/159 160/160/160 161/161/161
f 131/131/131 136/136/136 160/160/160
f 136/136/136 162/162/162 160/160/160
f 160/160/160 162/162/162 163/163/163
f 164/164/164 162/162/162 136/136/136
f 164/164/164 136/136/136 114/114/114
f 162/162/162 164/164/164 165/165/165
f 166/166/166 164/164/164 114/114/114
f 165/165/165 164/164/164 166/166/166
f 167/167/167 165/165/165 166/166/166
