g XWT0B3006Pifu-POLY_REDUCED
v -0.01837258 -0.06140086 1.512326
v -0.03433325 -0.05989432 1.51555
v -0.02869619 -0.05035544 1.531186
v 0.0006882125 -0.04847163 1.521167
v -7.428155E-17 -0.06367173 1.502751
v 0.02869619 -0.05035544 1.531186
v 0.01837258 -0.06140086 1.512326
v 0.03433325 -0.05989432 1.51555
v 0.02780452 -0.04373313 1.550956
v 0.03861371 -0.04366979 1.532134
v 0.03937805 -0.03296517 1.582765
v 0.04807296 -0.02496578 1.555719
v 0.02234028 -0.04305447 1.573232
v 0.05222496 -0.03050098 1.53533
v 0.06282841 -0.01342892 1.545888
v 0.05871868 0.002730717 1.573045
v 0.07501363 0.01070729 1.569361
v 0.04744723 -0.007108379 1.582624
v 0.04350996 -0.01112573 1.59835
v -0.00370006 -0.0432342 1.53633
v -0.02656314 -0.04269411 1.556009
v -0.03710949 -0.03615226 1.577198
v -0.002762961 -0.04405457 1.55854
v 0.0002280872 -0.05433704 1.58037
v -0.02135452 -0.04372027 1.574591
v -0.04807296 -0.02496578 1.555719
v -0.05222496 -0.03050098 1.53533
v -0.06282841 -0.01342892 1.545888
v -0.05871868 0.002730717 1.573045
v -0.07501363 0.01070729 1.569361
v -0.04346725 -0.01302642 1.597463
v -0.04744723 -0.007108379 1.582624
v 0.02202055 -0.04534072 1.586366
v 0.03024878 -0.04105148 1.590266
v -0.03024878 -0.04105148 1.590266
v -0.02202055 -0.04534072 1.586366
v -0.04054016 -0.02830528 1.600438
v -0.03721132 -0.03581716 1.595235
v -0.04216566 -0.02001634 1.606133
v -0.04285292 -0.01137131 1.613071
v -0.04388988 -0.01450846 1.625569
v -0.04188696 -0.02371947 1.617606
v -0.03946294 -0.03111653 1.611225
v -0.04193849 -0.02714559 1.627838
v -0.04567568 -0.01869782 1.637291
v -0.03783415 -0.03395447 1.620151
v -0.03571209 -0.03738987 1.605137
v -0.03414015 -0.03994657 1.614422
v -0.02944618 -0.04506884 1.609146
v -0.02943394 -0.04307324 1.599907
v -0.02260421 -0.05006203 1.604321
v -0.02191118 -0.0481833 1.596007
v -0.01264669 -0.05486264 1.60017
v -0.01226344 -0.05241549 1.592178
v -5.403352E-15 -0.05740818 1.597663
v -7.428155E-17 -0.05555005 1.589334
v 0.01226344 -0.05241549 1.592178
v 0.01264667 -0.05486267 1.60017
v 0.02191118 -0.0481833 1.596007
v 0.02260429 -0.05006208 1.604321
v 0.02943394 -0.04307324 1.599907
v 0.02944617 -0.04506885 1.609146
v 0.03571209 -0.03738987 1.605137
v 0.03414015 -0.03994669 1.614422
v 0.03783415 -0.03395441 1.620151
v 0.03721132 -0.03581716 1.595235
v 0.03946294 -0.03111653 1.611225
v 0.04193847 -0.02714555 1.627838
v 0.04054016 -0.02830528 1.600438
v 0.04188696 -0.02371947 1.617606
v 0.04388988 -0.01450846 1.625569
v 0.04567551 -0.01869779 1.637291
v 0.04285292 -0.01137131 1.613071
v -0.06975845 0.03298296 1.566807
v -0.05810185 0.02538476 1.579267
v -0.05114441 0.009690365 1.585214
v -0.03990062 0.02336966 1.596071
v -0.07501363 0.01070729 1.569361
v -0.05871868 0.002730717 1.573045
v -0.04744723 -0.007108379 1.582624
v -0.04727232 0.03579068 1.579561
v -0.04279105 0.007136902 1.608359
v -0.04118795 0.006506565 1.629022
v -0.04346725 -0.01302642 1.597463
v -0.04285292 -0.01137131 1.613071
v -0.04248826 -0.002265582 1.619039
v -0.04461135 -0.005220705 1.633155
v -0.04388988 -0.01450846 1.625569
v -0.04567568 -0.01869782 1.637291
v -0.04829217 -0.007885326 1.646423
v -0.04749369 0.004745075 1.653308
v -0.03962733 0.01544619 1.644311
v -0.04243288 0.01691049 1.65754
v -0.02932659 0.0241921 1.638351
v -0.0335731 0.0278904 1.661029
v -0.02125718 0.03530254 1.663289
v -0.03728681 0.01581866 1.629113
v -0.01692096 0.03186018 1.640892
v 6.171883E-11 0.04005 1.664569
v -0.01360716 0.03176837 1.614496
v -0.007859678 0.04382487 1.579605
v 0.0179146 0.02985231 1.613583
v 0.02930458 0.04002334 1.578918
v 0.05810185 0.02538476 1.579267
v 2.321267E-05 0.03415151 1.635392
v 0.01700404 0.03218146 1.642707
v 0.02929868 0.02423433 1.638335
v 0.0212572 0.03530253 1.663289
v 0.03357304 0.02789032 1.661029
v 0.04243289 0.0169105 1.65754
v 0.03962733 0.01544619 1.644311
v 0.0474937 0.004744578 1.653308
v 0.04118792 0.006506668 1.629022
v 0.04829219 -0.00788583 1.646424
v 0.03728681 0.01581866 1.629113
v 0.03715661 0.01887882 1.612142
v 0.04279106 0.007136879 1.608359
v 0.04219122 0.02277356 1.593685
v 0.05114441 0.009690368 1.585214
v 0.06975845 0.03298296 1.566807
v 0.07501363 0.01070729 1.569361
v 0.05871868 0.002730717 1.573045
v 0.04744723 -0.007108379 1.582624
v 0.04350996 -0.01112573 1.59835
v 0.04285292 -0.01137131 1.613071
v 0.04248826 -0.002265582 1.619039
v 0.04461135 -0.005220705 1.633155
v 0.04388988 -0.01450846 1.625569
v 0.04567551 -0.01869779 1.637291
vt 0.6268923 0.3375826
vt 0.6148646 0.3399273
vt 0.617991 0.3581573
vt 0.6410908 0.3511187
vt 0.6407864 0.3289748
vt 0.6636732 0.3580663
vt 0.6547074 0.3375273
vt 0.6667428 0.3398241
vt 0.6629107 0.3779552
vt 0.6725461 0.360559
vt 0.6750116 0.4073059
vt 0.6842777 0.3851343
vt 0.6587324 0.3989511
vt 0.6854858 0.366559
vt 0.697799 0.3789293
vt 0.7044668 0.4049707
vt 0.7120385 0.3987435
vt 0.6957786 0.410472
vt 0.6934786 0.4211832
vt 0.6379616 0.3658168
vt 0.6195874 0.3827305
vt 0.6097072 0.4025998
vt 0.6385007 0.385617
vt 0.6411568 0.4083284
vt 0.6239368 0.4003738
vt 0.5974028 0.3851889
vt 0.5962052 0.366737
vt 0.5839304 0.3791565
vt 0.5773435 0.4052247
vt 0.5697517 0.3990277
vt 0.5897146 0.4199976
vt 0.5860485 0.4106914
vt 0.6581519 0.4123127
vt 0.6657817 0.4153867
vt 0.6160603 0.4154862
vt 0.6236801 0.4123817
vt 0.6020005 0.4239148
vt 0.6088989 0.4194885
vt 0.5947061 0.4278913
vt 0.5868125 0.4321905
vt 0.5877428 0.4432796
vt 0.5962045 0.4381817
vt 0.6034734 0.4338752
vt 0.5975621 0.4478765
vt 0.5892465 0.4532699
vt 0.6054955 0.4423989
vt 0.6099269 0.4288931
vt 0.6121044 0.4375936
vt 0.6182566 0.4328513
vt 0.6170735 0.4246442
vt 0.6247175 0.4287029
vt 0.6242518 0.4214472
vt 0.63222 0.4253767
vt 0.632133 0.4182363
vt 0.6409338 0.4239509
vt 0.6409225 0.4166398
vt 0.6497176 0.418201
vt 0.649652 0.4253416
vt 0.6576085 0.4213805
vt 0.6571646 0.428638
vt 0.6647961 0.4245487
vt 0.6636388 0.4327606
vt 0.6719558 0.4287691
vt 0.6698053 0.4374783
vt 0.676429 0.4422571
vt 0.6729553 0.4193604
vt 0.6784248 0.4337253
vt 0.6843793 0.447703
vt 0.679867 0.4237591
vt 0.6857071 0.4380027
vt 0.6941841 0.4430667
vt 0.6927152 0.453063
vt 0.6950805 0.431974
vt 0.4039604 0.3894385
vt 0.3970203 0.3984631
vt 0.4012695 0.4094682
vt 0.3848518 0.4073678
vt 0.414335 0.4006452
vt 0.4114878 0.4085387
vt 0.407874 0.4144391
vt 0.38586 0.3938393
vt 0.393514 0.4204116
vt 0.3892781 0.4321909
vt 0.4063479 0.4210387
vt 0.405518 0.429075
vt 0.3983106 0.4294556
vt 0.3974203 0.43944
vt 0.4049689 0.4393758
vt 0.4044289 0.448785
vt 0.3965811 0.448785
vt 0.3874969 0.448785
vt 0.3797361 0.4397216
vt 0.3787317 0.448785
vt 0.3706419 0.4325916
vt 0.3696918 0.448785
vt 0.3596465 0.448785
vt 0.3813362 0.4290197
vt 0.3592228 0.4324681
vt 0.3463535 0.448785
vt 0.3581522 0.4141733
vt 0.3528062 0.3899154
vt 0.3307504 0.4137928
vt 0.3219147 0.3911733
vt 0.2956902 0.3984608
vt 0.3463267 0.4277701
vt 0.3334897 0.4337804
vt 0.321915 0.4326096
vt 0.3330607 0.4487845
vt 0.3230152 0.448784
vt 0.313976 0.4487836
vt 0.3129718 0.4397202
vt 0.3052101 0.4487832
vt 0.3033216 0.4322264
vt 0.2961265 0.4487828
vt 0.311372 0.4290181
vt 0.31063 0.417574
vt 0.2993078 0.4201326
vt 0.3054555 0.4062942
vt 0.29144 0.4094658
vt 0.2887501 0.3894359
vt 0.2783751 0.4006422
vt 0.2812216 0.4085357
vt 0.2848348 0.4144365
vt 0.2863609 0.4210362
vt 0.2871904 0.4290723
vt 0.2943975 0.4294534
vt 0.2952878 0.4394377
vt 0.287739 0.4393733
vt 0.2882783 0.4487825
vn 0.1918765 -0.7278062 0.6583931
vn -0.08322739 -0.6721491 0.7357234
vn -0.1217635 -0.8863348 0.4467487
vn -0.005184034 -0.8425102 0.5386555
vn 0 -0.7418087 0.6706117
vn 0.1217637 -0.8863347 0.4467486
vn -0.1918765 -0.7278062 0.6583931
vn 0.08322739 -0.6721491 0.7357234
vn 0.103858 -0.9800882 0.1692354
vn 0.443015 -0.7643168 0.4685696
vn 0.801756 -0.5929533 0.07479032
vn 0.7756915 -0.5661749 0.2788344
vn 0.3148358 -0.9447116 -0.09164276
vn 0.5389892 -0.6530091 0.532043
vn 0.4654469 -0.6767872 0.5703669
vn 0.6635895 -0.4813795 0.5726455
vn 0.4228801 -0.5319775 0.7336022
vn 0.9070017 -0.298207 0.2973559
vn 0.9816231 -0.1439233 0.1253087
vn 0.06419092 -0.9711101 0.229836
vn -0.1514367 -0.9785023 0.1400003
vn -0.7285304 -0.6813918 0.07034655
vn -0.006604928 -0.986898 -0.1612098
vn -0.015247 -0.9509811 -0.3088728
vn -0.3188933 -0.94 -0.1212725
vn -0.7713009 -0.5700938 0.2829984
vn -0.5389892 -0.6530091 0.532043
vn -0.4654469 -0.6767872 0.5703669
vn -0.6635895 -0.4813794 0.5726455
vn -0.4228801 -0.5319775 0.7336022
vn -0.9825665 -0.1508284 0.1086919
vn -0.9070017 -0.2982069 0.2973559
vn 0.4605139 -0.8732263 -0.1593828
vn 0.5729058 -0.8175089 -0.05880594
vn -0.5729058 -0.8175089 -0.05880594
vn -0.4605137 -0.8732263 -0.1593828
vn -0.942219 -0.3344519 0.01910925
vn -0.7831914 -0.6217283 0.00807047
vn -0.9869443 -0.1606485 0.01152754
vn -0.9998003 -0.01983066 0.002503396
vn -0.9925591 -0.05850493 -0.1067877
vn -0.9628609 -0.2675109 -0.03656149
vn -0.9002466 -0.4353356 0.006246567
vn -0.9614586 -0.2587713 -0.09292363
vn -0.9831421 -0.05943608 -0.1729131
vn -0.8939655 -0.4478305 -0.01653432
vn -0.7787241 -0.627094 -0.01848936
vn -0.8095993 -0.5860905 -0.03235339
vn -0.705956 -0.6967795 -0.1269818
vn -0.6507449 -0.750427 -0.1157165
vn -0.5829309 -0.7851443 -0.2091407
vn -0.5336226 -0.8210303 -0.2028704
vn -0.3937151 -0.8839388 -0.2522706
vn -0.3833188 -0.8946208 -0.229609
vn 0 -0.9650586 -0.2620339
vn 0 -0.9745932 -0.2239824
vn 0.3833188 -0.8946208 -0.229609
vn 0.3937151 -0.8839388 -0.2522706
vn 0.5336226 -0.8210303 -0.2028704
vn 0.5829309 -0.7851443 -0.2091407
vn 0.6507449 -0.750427 -0.1157165
vn 0.705956 -0.6967795 -0.1269818
vn 0.7787241 -0.627094 -0.01848936
vn 0.8095993 -0.5860905 -0.03235339
vn 0.8939655 -0.4478305 -0.01653432
vn 0.7831914 -0.6217283 0.00807047
vn 0.9002466 -0.4353356 0.006246567
vn 0.9614586 -0.2587713 -0.09292363
vn 0.942219 -0.3344519 0.01910925
vn 0.962861 -0.2675107 -0.03656149
vn 0.9925591 -0.05850493 -0.1067877
vn 0.9831421 -0.05943608 -0.1729131
vn 0.9998003 -0.01983066 0.002503396
vn -0.4635522 0.4190998 0.7806886
vn -0.6136106 0.3001513 0.7303363
vn -0.8199146 -0.07405198 0.5676763
vn -0.7158157 0.5016173 0.4857858
vn -0.4756675 -0.3087236 0.8236687
vn -0.6635895 -0.4813794 0.5726455
vn -0.8948206 -0.2828812 0.3453612
vn -0.4637811 0.6505846 0.6013708
vn -0.9617233 0.1972915 0.1901696
vn -0.9527513 0.300588 -0.04372437
vn -0.9836109 -0.1083888 0.1440883
vn -0.9998003 -0.01983066 0.002503396
vn -0.9947961 0.1017056 0.006055831
vn -0.9815159 0.1135841 -0.1540303
vn -0.9925591 -0.05850493 -0.1067877
vn -0.9831421 -0.05943608 -0.1729131
vn -0.965897 0.1352618 -0.2207875
vn -0.9123969 0.3430895 -0.2232075
vn -0.8187116 0.5522569 -0.1572371
vn -0.7902407 0.5716678 -0.220716
vn -0.6270681 0.7773885 -0.04952611
vn -0.6018125 0.7684981 -0.2173305
vn -0.3648185 0.9133713 -0.1807212
vn -0.8385271 0.544662 0.01468658
vn -0.3461511 0.9362341 -0.06037519
vn 0 0.9890019 -0.147903
vn -0.2495681 0.9411159 0.2280718
vn -0.09983022 0.8898266 0.4452443
vn 0.3267751 0.9141491 0.2398945
vn 0.2953305 0.8308002 0.4717531
vn 0.6136106 0.3001514 0.7303364
vn 0.0007638586 0.99967 -0.02567767
vn 0.3483501 0.9344338 -0.07406523
vn 0.6305847 0.7745303 -0.04965674
vn 0.3648188 0.9133713 -0.1807213
vn 0.6018125 0.7684981 -0.2173305
vn 0.7902407 0.5716678 -0.220716
vn 0.8187116 0.5522569 -0.1572371
vn 0.9123969 0.3430895 -0.2232075
vn 0.9535679 0.2978982 -0.04432736
vn 0.965897 0.1352618 -0.2207875
vn 0.8385271 0.544662 0.01468658
vn 0.8219947 0.5190889 0.2342463
vn 0.9604399 0.2029804 0.1906673
vn 0.7326995 0.4519041 0.5088557
vn 0.8199147 -0.07405179 0.5676762
vn 0.4635522 0.4190998 0.7806886
vn 0.4756675 -0.3087236 0.8236687
vn 0.6635895 -0.4813795 0.5726455
vn 0.8948206 -0.2828814 0.3453613
vn 0.9836109 -0.1083888 0.1440883
vn 0.9998003 -0.01983066 0.002503396
vn 0.9947961 0.1017056 0.006055831
vn 0.9815159 0.1135841 -0.1540303
vn 0.9925591 -0.05850493 -0.1067877
vn 0.9831421 -0.05943608 -0.1729131
g XWT0B3006Pifu-POLY_REDUCED_0
f 3/3/3 2/2/2 1/1/1
f 1/1/1 4/4/4 3/3/3
f 4/4/4 1/1/1 5/5/5
f 6/6/6 4/4/4 5/5/5
f 7/7/7 6/6/6 5/5/5
f 8/8/8 6/6/6 7/7/7
f 6/6/6 9/9/9 4/4/4
f 9/9/9 6/6/6 10/10/10
f 11/11/11 9/9/9 10/10/10
f 12/12/12 11/11/11 10/10/10
f 11/11/11 13/13/13 9/9/9
f 14/14/14 12/12/12 10/10/10
f 12/12/12 14/14/14 15/15/15
f 12/12/12 15/15/15 16/16/16
f 12/12/12 16/16/16 11/11/11
f 16/16/16 15/15/15 17/17/17
f 16/16/16 18/18/18 11/11/11
f 18/18/18 19/19/19 11/11/11
f 20/20/20 4/4/4 9/9/9
f 20/20/20 9/9/9 13/13/13
f 21/21/21 4/4/4 20/20/20
f 3/3/3 4/4/4 21/21/21
f 21/21/21 22/22/22 3/3/3
f 20/20/20 23/23/23 21/21/21
f 23/23/23 20/20/20 13/13/13
f 23/23/23 13/13/13 24/24/24
f 21/21/21 23/23/23 25/25/25
f 21/21/21 25/25/25 22/22/22
f 25/25/25 23/23/23 24/24/24
f 22/22/22 26/26/26 3/3/3
f 26/26/26 27/27/27 3/3/3
f 27/27/27 26/26/26 28/28/28
f 28/28/28 26/26/26 29/29/29
f 28/28/28 29/29/29 30/30/30
f 29/29/29 26/26/26 31/31/31
f 31/31/31 26/26/26 22/22/22
f 32/32/32 29/29/29 31/31/31
f 13/13/13 33/33/33 24/24/24
f 33/33/33 13/13/13 34/34/34
f 13/13/13 11/11/11 34/34/34
f 22/22/22 25/25/25 35/35/35
f 36/36/36 25/25/25 24/24/24
f 25/25/25 36/36/36 35/35/35
f 37/37/37 31/31/31 22/22/22
f 22/22/22 35/35/35 38/38/38
f 22/22/22 38/38/38 37/37/37
f 39/39/39 31/31/31 37/37/37
f 39/39/39 40/40/40 31/31/31
f 41/41/41 40/40/40 39/39/39
f 42/42/42 39/39/39 37/37/37
f 41/41/41 39/39/39 42/42/42
f 37/37/37 38/38/38 43/43/43
f 37/37/37 43/43/43 42/42/42
f 42/42/42 44/44/44 41/41/41
f 42/42/42 43/43/43 44/44/44
f 44/44/44 45/45/45 41/41/41
f 43/43/43 46/46/46 44/44/44
f 38/38/38 47/47/47 43/43/43
f 43/43/43 47/47/47 46/46/46
f 38/38/38 35/35/35 47/47/47
f 47/47/47 48/48/48 46/46/46
f 48/48/48 47/47/47 49/49/49
f 35/35/35 50/50/50 47/47/47
f 47/47/47 50/50/50 49/49/49
f 51/51/51 49/49/49 50/50/50
f 50/50/50 35/35/35 36/36/36
f 52/52/52 51/51/51 50/50/50
f 52/52/52 50/50/50 36/36/36
f 53/53/53 51/51/51 52/52/52
f 52/52/52 36/36/36 54/54/54
f 54/54/54 53/53/53 52/52/52
f 36/36/36 24/24/24 54/54/54
f 55/55/55 53/53/53 54/54/54
f 54/54/54 24/24/24 56/56/56
f 56/56/56 55/55/55 54/54/54
f 24/24/24 57/57/57 56/56/56
f 55/55/55 56/56/56 57/57/57
f 58/58/58 55/55/55 57/57/57
f 24/24/24 33/33/33 57/57/57
f 58/58/58 57/57/57 59/59/59
f 33/33/33 59/59/59 57/57/57
f 60/60/60 58/58/58 59/59/59
f 61/61/61 59/59/59 33/33/33
f 60/60/60 59/59/59 61/61/61
f 62/62/62 60/60/60 61/61/61
f 34/34/34 61/61/61 33/33/33
f 61/61/61 63/63/63 62/62/62
f 61/61/61 34/34/34 63/63/63
f 63/63/63 64/64/64 62/62/62
f 64/64/64 63/63/63 65/65/65
f 34/34/34 66/66/66 63/63/63
f 34/34/34 11/11/11 66/66/66
f 63/63/63 67/67/67 65/65/65
f 63/63/63 66/66/66 67/67/67
f 65/65/65 67/67/67 68/68/68
f 66/66/66 11/11/11 69/69/69
f 66/66/66 69/69/69 67/67/67
f 11/11/11 19/19/19 69/69/69
f 67/67/67 69/69/69 70/70/70
f 67/67/67 70/70/70 68/68/68
f 19/19/19 70/70/70 69/69/69
f 68/68/68 70/70/70 71/71/71
f 19/19/19 71/71/71 70/70/70
f 72/72/72 68/68/68 71/71/71
f 73/73/73 71/71/71 19/19/19
f 76/76/76 75/75/75 74/74/74
f 76/76/76 77/77/77 75/75/75
f 78/78/78 76/76/76 74/74/74
f 78/78/78 79/79/79 76/76/76
f 79/79/79 80/80/80 76/76/76
f 75/75/75 77/77/77 81/81/81
f 82/82/82 76/76/76 80/80/80
f 82/82/82 77/77/77 76/76/76
f 77/77/77 82/82/82 83/83/83
f 84/84/84 82/82/82 80/80/80
f 84/84/84 85/85/85 82/82/82
f 85/85/85 86/86/86 82/82/82
f 86/86/86 83/83/83 82/82/82
f 87/87/87 86/86/86 85/85/85
f 86/86/86 87/87/87 83/83/83
f 88/88/88 87/87/87 85/85/85
f 88/88/88 89/89/89 87/87/87
f 89/89/89 90/90/90 87/87/87
f 87/87/87 90/90/90 83/83/83
f 90/90/90 91/91/91 83/83/83
f 83/83/83 91/91/91 92/92/92
f 91/91/91 93/93/93 92/92/92
f 92/92/92 93/93/93 94/94/94
f 93/93/93 95/95/95 94/94/94
f 95/95/95 96/96/96 94/94/94
f 83/83/83 92/92/92 97/97/97
f 97/97/97 92/92/92 94/94/94
f 97/97/97 77/77/77 83/83/83
f 77/77/77 97/97/97 94/94/94
f 96/96/96 98/98/98 94/94/94
f 98/98/98 96/96/96 99/99/99
f 77/77/77 94/94/94 100/100/100
f 94/94/94 98/98/98 100/100/100
f 77/77/77 100/100/100 81/81/81
f 101/101/101 81/81/81 100/100/100
f 102/102/102 101/101/101 100/100/100
f 103/103/103 101/101/101 102/102/102
f 103/103/103 102/102/102 104/104/104
f 100/100/100 98/98/98 105/105/105
f 105/105/105 98/98/98 99/99/99
f 102/102/102 100/100/100 105/105/105
f 106/106/106 105/105/105 99/99/99
f 106/106/106 102/102/102 105/105/105
f 106/106/106 107/107/107 102/102/102
f 108/108/108 106/106/106 99/99/99
f 106/106/106 108/108/108 107/107/107
f 108/108/108 109/109/109 107/107/107
f 109/109/109 110/110/110 107/107/107
f 110/110/110 111/111/111 107/107/107
f 110/110/110 112/112/112 111/111/111
f 112/112/112 113/113/113 111/111/111
f 112/112/112 114/114/114 113/113/113
f 111/111/111 115/115/115 107/107/107
f 111/111/111 113/113/113 115/115/115
f 115/115/115 116/116/116 107/107/107
f 116/116/116 102/102/102 107/107/107
f 116/116/116 115/115/115 113/113/113
f 117/117/117 116/116/116 113/113/113
f 116/116/116 118/118/118 102/102/102
f 118/118/118 116/116/116 117/117/117
f 102/102/102 118/118/118 104/104/104
f 118/118/118 119/119/119 104/104/104
f 118/118/118 117/117/117 119/119/119
f 104/104/104 119/119/119 120/120/120
f 119/119/119 121/121/121 120/120/120
f 122/122/122 121/121/121 119/119/119
f 123/123/123 122/122/122 119/119/119
f 119/119/119 117/117/117 123/123/123
f 117/117/117 124/124/124 123/123/123
f 125/125/125 124/124/124 117/117/117
f 113/113/113 126/126/126 117/117/117
f 126/126/126 125/125/125 117/117/117
f 127/127/127 126/126/126 113/113/113
f 126/126/126 127/127/127 125/125/125
f 114/114/114 127/127/127 113/113/113
f 127/127/127 128/128/128 125/125/125
f 114/114/114 129/129/129 127/127/127
f 129/129/129 128/128/128 127/127/127
